<?xml version="1.0" standalone="no"?>
<!DOCTYPE svg PUBLIC "-//W3C//DTD SVG 20010904//EN"
 "http://www.w3.org/TR/2001/REC-SVG-20010904/DTD/svg10.dtd">
<svg version="1.0" xmlns="http://www.w3.org/2000/svg"
 width="512.000000pt" height="512.000000pt" viewBox="0 0 512.000000 512.000000"
 preserveAspectRatio="xMidYMid meet">

<g transform="translate(0.000000,512.000000) scale(0.100000,-0.100000)"
fill="#ffffff" stroke="none">
<path d="M1024 4571 c-77 -19 -135 -79 -153 -161 -15 -64 -14 -1093 0 -1162
16 -76 63 -163 121 -224 45 -48 88 -72 449 -256 219 -112 399 -205 399 -208 0
-3 -180 -96 -399 -208 -361 -184 -404 -208 -449 -256 -58 -61 -105 -148 -121
-224 -14 -68 -15 -1098 -1 -1160 28 -121 138 -190 255 -159 35 9 509 291 1540
916 820 497 1503 915 1518 930 95 87 95 235 0 322 -15 15 -698 433 -1518 930
-1409 854 -1546 933 -1600 928 -5 -1 -24 -4 -41 -8z m1419 -1073 c727 -441
1369 -830 1427 -865 58 -34 105 -67 105 -73 0 -5 -236 -153 -525 -328 -289
-175 -931 -564 -1427 -865 -496 -301 -904 -547 -907 -547 -4 0 -6 228 -6 507
0 493 1 508 21 550 11 23 33 51 47 62 15 10 215 114 446 231 230 118 432 225
448 238 89 75 93 215 9 296 -15 15 -221 125 -457 245 -236 120 -442 231 -458
247 -56 55 -56 50 -56 599 0 278 2 505 5 505 3 0 601 -361 1328 -802z"/>
</g>
</svg>
